<?xml version="1.0" encoding="utf-8"?>
<!-- Generator: Adobe Illustrator 27.5.0, SVG Export Plug-In . SVG Version: 6.00 Build 0)  -->
<svg fill="#ffffff" version="1.1" id="Capa_1" xmlns="http://www.w3.org/2000/svg" xmlns:xlink="http://www.w3.org/1999/xlink" x="0px" y="0px"
	 viewBox="0 0 566.93 566.93" style="enable-background:new 0 0 566.93 566.93;" xml:space="preserve">

<g>
	<g>
		<path class="st0" d="M0,472.46c0-125.96,0-251.99,0-378c188.99,0,377.96,0,566.93,0c0,125.98,0,251.93,0,378
			C377.94,472.46,188.96,472.46,0,472.46z M405.8,262.44c-1.4,0-2.44,0-3.47,0c-22.27,0-44.54,0-66.8,0.01
			c-3.97,0-3.97,0.02-3.97-3.89c0.01-28.49,0.03-56.98,0.02-85.47c0-7.19-2.87-10.08-10.01-10.08c-6.46,0-12.92,0.11-19.37,0.1
			c-27.38-0.03-54.76-0.09-82.14-0.13c-7.38-0.01-14.77,0-22.15,0c0.93,0.8,1.98,1.14,3.01,1.49c20.74,7.1,39.2,17.77,54.25,34.17
			c11.68,12.73,20.91,26.85,26.35,43.38c2.29,6.97-0.53,11.15-7.75,11.18c-14.46,0.07-28.92,0-43.39,0.02
			c-4.63,0.01-8.09-1.95-10.58-5.91c-5.04-8.02-11.7-14.42-19.82-19.17c-21.44-12.52-44.26-14.75-67.79-7.86
			c-19.15,5.61-33.56,17.4-41.84,36.11c-11.04,24.95-10.91,50.26-1.39,75.44c8.49,22.46,25.42,36.37,47.94,42.66
			c18.15,5.07,36.36,3.85,53.84-4.2c9.56-4.4,17.89-10.28,24.28-18.77c3.61-4.8,6.56-9.97,8.42-16.13c-2.46,0-4.56,0-6.67,0
			c-16.1,0-32.2,0.02-48.3-0.01c-6.29-0.01-9.71-2.99-9.79-8.97c-0.16-11.57-0.17-23.14-0.04-34.71c0.07-6.15,3.43-9.37,9.44-9.37
			c35.38-0.03,70.76-0.04,106.14,0c7.57,0.01,10.44,3.07,10.44,10.68c0,40.45-0.03,80.9,0.03,121.36c0.01,4.77-0.16,9.25-5.66,12.08
			c14.61,0,28.39,0,42.17,0c7.66,0,10.32-2.61,10.32-10.25c0.01-30.63,0.01-61.26,0.01-91.88c0-1.24,0-2.48,0-3.89
			c24.87,0,49.4,0,74.18,0c0.07,1.36,0.18,2.59,0.18,3.83c0.03,30.91,0.03,61.83,0.1,92.74c0.02,6.84,2.77,9.43,9.57,9.43
			c13.02,0.01,26.03,0,39.05,0.02c7.47,0.01,10.26-2.77,10.27-10.4c0.02-44.54,0.04-89.07,0.04-133.61c0-6.22-0.1-12.44-0.09-18.67
			c0.02-29.95,0.06-59.91,0.08-89.86c0-1.16-0.05-2.34-0.22-3.48c-0.71-4.62-3.28-7.3-7.91-7.35c-14.26-0.15-28.53-0.16-42.79,0.01
			c-4.97,0.06-7.63,3.06-8.07,8.14c-0.1,1.16-0.09,2.33-0.1,3.5c-0.02,28.01-0.03,56.02-0.05,84.02
			C405.8,259.88,405.8,261.01,405.8,262.44z M234.88,426.32c-5.07-2.16-5.96-5.87-5.93-10.08c0.04-5.64,0.03-11.28,0.01-16.92
			c0-0.68-0.15-1.35-0.29-2.54c-10.88,14.01-24.29,23.56-40.32,29.53C203.56,426.32,218.77,426.32,234.88,426.32z"/>
		<path d="M405.8,262.44c0-1.43,0-2.57,0-3.7c0.01-28.01,0.03-56.02,0.05-84.02c0-1.17,0-2.34,0.1-3.5c0.44-5.08,3.1-8.08,8.07-8.14
			c14.26-0.17,28.53-0.16,42.79-0.01c4.63,0.05,7.2,2.73,7.91,7.35c0.18,1.15,0.23,2.32,0.22,3.48
			c-0.02,29.95-0.06,59.91-0.08,89.86c0,6.22,0.09,12.44,0.09,18.67c0,44.54-0.02,89.07-0.04,133.61c0,7.64-2.8,10.41-10.27,10.4
			c-13.02-0.02-26.03-0.01-39.05-0.02c-6.8-0.01-9.55-2.59-9.57-9.43c-0.08-30.91-0.07-61.83-0.1-92.74c0-1.24-0.12-2.48-0.18-3.83
			c-24.78,0-49.31,0-74.18,0c0,1.41,0,2.65,0,3.89c0,30.63,0,61.26-0.01,91.88c0,7.64-2.67,10.26-10.32,10.25
			c-13.78-0.01-27.56,0-42.17,0c5.5-2.82,5.67-7.31,5.66-12.08c-0.06-40.45-0.04-80.9-0.03-121.36c0-7.61-2.87-10.67-10.44-10.68
			c-35.38-0.04-70.76-0.03-106.14,0c-6.01,0.01-9.36,3.23-9.44,9.37c-0.13,11.57-0.13,23.14,0.04,34.71
			c0.08,5.98,3.5,8.96,9.79,8.97c16.1,0.03,32.2,0.01,48.3,0.01c2.11,0,4.21,0,6.67,0c-1.86,6.16-4.81,11.32-8.42,16.13
			c-6.39,8.49-14.71,14.37-24.28,18.77c-17.48,8.05-35.69,9.27-53.84,4.2c-22.51-6.29-39.45-20.21-47.94-42.66
			c-9.51-25.17-9.64-50.49,1.39-75.44c8.28-18.71,22.69-30.5,41.84-36.11c23.53-6.9,46.35-4.67,67.79,7.86
			c8.12,4.74,14.78,11.15,19.82,19.17c2.49,3.95,5.94,5.91,10.58,5.91c14.46-0.02,28.92,0.05,43.39-0.02
			c7.22-0.03,10.04-4.21,7.75-11.18c-5.44-16.53-14.67-30.64-26.35-43.38c-15.05-16.4-33.51-27.07-54.25-34.17
			c-1.04-0.36-2.08-0.7-3.01-1.49c7.38,0,14.77-0.01,22.15,0c27.38,0.04,54.76,0.1,82.14,0.13c6.46,0.01,12.92-0.1,19.37-0.1
			c7.15,0,10.01,2.89,10.01,10.08c0,28.49-0.01,56.98-0.02,85.47c0,3.91,0,3.89,3.97,3.89c22.27-0.01,44.54-0.01,66.8-0.01
			C403.37,262.44,404.4,262.44,405.8,262.44z"/>
		<path d="M234.88,426.32c-16.11,0-31.32,0-46.53,0c16.03-5.97,29.44-15.52,40.32-29.53c0.14,1.18,0.29,1.86,0.29,2.54
			c0.01,5.64,0.02,11.28-0.01,16.92C228.92,420.45,229.81,424.15,234.88,426.32z"/>
	</g>
</g>
</svg>