<svg version="1.0" xmlns="http://www.w3.org/2000/svg"
 width="1920.000000pt" height="501.000000pt" viewBox="0 0 1920.000000 501.000000"
 preserveAspectRatio="xMidYMid meet">

<g transform="translate(0.000000,501.000000) scale(0.100000,-0.100000)"
fill="#ffffff" stroke="none">
<path d="M1773 4425 c-18 -8 -33 -19 -33 -25 0 -5 -7 -10 -15 -10 -9 0 -33
-11 -55 -25 -22 -14 -46 -25 -55 -25 -8 0 -15 -4 -15 -9 0 -5 -27 -23 -59 -40
-33 -17 -77 -42 -97 -56 -20 -14 -41 -25 -47 -25 -6 0 -25 -11 -44 -26 -18
-14 -33 -22 -33 -19 0 3 -20 -8 -44 -25 -25 -16 -49 -30 -55 -30 -6 0 -39 -18
-73 -40 -35 -22 -71 -40 -80 -40 -10 0 -18 -7 -18 -16 0 -10 -6 -14 -15 -10
-9 3 -15 0 -15 -9 0 -8 -7 -15 -15 -15 -8 0 -31 -10 -52 -22 -21 -12 -63 -35
-93 -51 -30 -17 -66 -36 -79 -43 -13 -7 -27 -16 -30 -21 -3 -5 -33 -21 -66
-37 -33 -16 -73 -39 -90 -51 -16 -12 -50 -30 -75 -41 -24 -10 -74 -39 -110
-63 -36 -24 -93 -57 -128 -73 -46 -22 -73 -43 -97 -77 l-35 -46 0 -937 c0
-619 3 -938 10 -938 6 0 10 3 10 8 0 7 22 21 73 44 15 7 27 16 27 20 0 4 7 8
15 8 8 0 46 20 85 45 39 25 75 45 82 45 6 0 37 17 67 37 98 65 125 80 179 104
28 13 52 27 52 31 0 4 33 23 73 43 39 20 94 49 120 65 26 17 59 33 72 36 14 3
25 12 25 20 0 8 7 14 15 14 8 0 36 14 62 30 26 16 53 30 60 30 7 0 13 4 13 8
0 5 17 16 38 25 44 20 103 53 111 64 6 8 56 35 211 115 36 18 68 37 71 41 6 8
57 39 99 59 14 7 28 16 31 21 3 4 30 14 60 22 48 13 59 13 104 -1 28 -9 57
-23 66 -30 8 -8 21 -14 27 -14 13 0 80 -36 102 -55 8 -7 42 -26 75 -41 33 -16
78 -41 99 -56 21 -15 47 -28 58 -28 10 0 18 -4 18 -10 0 -5 5 -10 11 -10 6 0
25 -11 42 -24 18 -13 56 -34 85 -47 28 -13 52 -27 52 -31 0 -5 4 -8 9 -8 5 0
38 -18 72 -40 35 -22 96 -56 136 -75 39 -19 73 -38 75 -42 5 -12 64 -43 82
-43 9 0 16 -4 16 -9 0 -5 8 -11 18 -15 9 -3 39 -19 65 -36 26 -16 59 -33 72
-36 14 -3 25 -12 25 -20 0 -8 6 -14 14 -14 8 0 47 -20 87 -45 40 -25 78 -45
85 -45 6 0 30 -13 52 -30 23 -16 46 -30 52 -30 5 0 10 -3 10 -8 0 -13 78 -42
113 -42 18 0 38 5 45 12 9 9 12 149 12 569 l0 557 -25 16 c-13 9 -31 16 -40
16 -8 0 -15 7 -15 15 0 8 -14 17 -35 21 -19 3 -35 10 -35 15 0 5 -5 9 -12 9
-6 0 -26 11 -43 25 -18 13 -58 36 -90 50 -31 15 -79 42 -105 61 -26 19 -55 34
-63 34 -9 0 -20 6 -24 13 -9 14 -112 67 -131 67 -6 0 -12 6 -12 13 0 6 -31 27
-68 45 -95 48 -169 88 -227 124 -27 17 -70 42 -95 55 -25 13 -71 39 -104 58
-32 19 -64 35 -72 35 -8 0 -14 7 -14 15 0 8 -7 15 -15 15 -9 0 -34 12 -58 27
-23 14 -44 26 -47 26 -3 0 -16 8 -29 18 -13 11 -28 19 -34 19 -5 0 -35 15 -66
34 -159 96 -221 126 -259 126 -43 0 -104 -20 -115 -37 -4 -7 -15 -13 -23 -13
-9 0 -36 -15 -62 -32 -56 -39 -111 -68 -129 -68 -7 0 -13 -4 -13 -10 0 -5 -6
-10 -14 -10 -7 0 -19 -7 -26 -15 -7 -8 -40 -28 -74 -45 -59 -29 -96 -50 -106
-60 -13 -13 -70 -40 -84 -40 -9 0 -19 -6 -22 -14 -3 -7 -39 -30 -80 -50 -41
-21 -74 -41 -74 -45 0 -5 -12 -12 -27 -16 -15 -3 -39 -15 -54 -26 -15 -10 -30
-19 -34 -19 -3 0 -21 -11 -39 -25 -18 -14 -38 -25 -44 -25 -6 0 -24 -8 -41
-17 l-31 -18 0 -237 c0 -131 2 -238 4 -238 8 0 157 81 166 90 6 6 72 42 175
95 38 19 72 39 75 44 5 9 98 62 180 103 25 13 47 25 50 28 10 10 46 31 73 43
15 6 27 15 27 19 0 4 7 8 17 8 9 0 30 11 47 23 17 13 61 38 99 56 37 18 67 35
67 40 0 12 64 31 107 31 38 0 64 -10 128 -50 17 -10 37 -19 46 -19 9 -1 41
-19 72 -41 30 -22 60 -40 66 -40 6 0 48 -22 92 -50 44 -27 87 -50 94 -50 8 0
18 -6 22 -12 4 -7 26 -22 48 -32 22 -11 54 -30 71 -43 17 -12 57 -34 89 -48
31 -15 79 -42 105 -61 26 -19 52 -34 57 -34 6 0 37 -16 68 -35 32 -19 68 -38
79 -41 12 -4 28 -14 36 -23 8 -10 31 -23 50 -31 19 -8 37 -16 40 -19 3 -4 19
-13 35 -21 17 -8 32 -18 35 -21 3 -3 19 -12 35 -20 29 -14 30 -16 33 -96 3
-74 1 -83 -22 -109 -17 -19 -28 -25 -33 -18 -5 6 -30 22 -58 35 -97 49 -210
112 -234 131 -13 10 -30 18 -37 18 -8 0 -14 5 -14 10 0 6 -7 10 -17 10 -9 0
-30 10 -47 23 -48 36 -123 77 -140 77 -8 0 -19 6 -23 13 -4 6 -21 19 -38 27
-16 8 -32 17 -35 20 -7 7 -45 29 -105 60 -66 35 -95 51 -124 73 -13 9 -32 17
-42 17 -11 0 -19 5 -19 10 0 6 -4 10 -10 10 -5 0 -41 20 -79 45 -38 25 -76 45
-84 45 -8 0 -27 10 -43 23 -24 19 -40 22 -106 22 -67 -1 -81 -4 -98 -23 -12
-12 -28 -22 -37 -22 -8 0 -36 -15 -62 -33 -25 -18 -72 -45 -105 -60 -32 -16
-73 -39 -91 -52 -17 -14 -37 -25 -43 -25 -7 0 -12 -4 -12 -10 0 -5 -6 -10 -14
-10 -8 0 -43 -18 -79 -39 -35 -22 -81 -46 -101 -55 -20 -8 -36 -19 -36 -24 0
-6 -12 -13 -27 -17 -15 -3 -48 -21 -73 -39 -25 -18 -72 -45 -105 -61 -33 -15
-74 -38 -91 -51 -17 -13 -38 -24 -47 -24 -10 0 -17 -3 -17 -8 0 -8 -6 -11 -84
-51 -25 -13 -49 -27 -52 -32 -3 -5 -14 -9 -24 -9 -10 0 -23 -6 -27 -12 -4 -7
-23 -21 -40 -31 l-33 -18 0 445 c0 419 1 447 20 490 10 25 24 46 30 46 5 0 10
6 10 13 0 8 10 18 23 24 12 6 36 17 52 24 17 8 38 21 47 30 10 8 50 32 90 52
80 41 110 58 118 69 3 3 18 10 33 13 15 4 27 11 27 16 0 5 6 9 14 9 8 0 16 7
20 15 3 8 11 15 19 15 16 0 124 58 132 71 4 5 15 9 26 9 10 0 19 5 19 10 0 6
5 10 12 10 6 0 26 12 45 26 18 14 58 36 88 49 30 13 77 41 105 61 28 20 62 37
75 38 14 0 28 9 31 19 3 9 11 17 19 17 7 0 36 15 64 34 28 19 51 32 51 30 0
-3 14 4 30 16 24 17 46 22 100 23 43 1 75 -4 82 -11 7 -7 20 -12 30 -12 10 0
18 -5 18 -11 0 -5 4 -8 9 -5 5 3 14 -1 21 -9 7 -8 19 -15 26 -15 8 0 14 -4 14
-10 0 -5 6 -10 13 -10 6 0 30 -14 51 -30 22 -17 45 -30 52 -30 15 0 75 -34
120 -67 17 -13 38 -23 46 -23 8 0 33 -12 54 -27 46 -32 77 -51 119 -72 17 -8
32 -17 35 -20 3 -3 23 -15 45 -26 22 -10 64 -36 94 -57 30 -21 61 -38 68 -38
8 0 46 -20 84 -45 38 -25 75 -45 82 -45 7 0 29 -11 48 -25 19 -14 59 -38 89
-53 30 -15 78 -41 105 -60 28 -18 60 -35 73 -38 12 -4 22 -10 22 -15 0 -6 21
-19 46 -29 26 -11 58 -29 73 -39 92 -64 170 -88 199 -59 9 9 12 70 12 213 l0
200 -57 36 c-32 19 -76 43 -98 53 -22 10 -47 24 -55 31 -8 7 -44 29 -80 47
-105 55 -135 73 -138 81 -2 4 -11 7 -19 7 -9 0 -21 6 -27 14 -6 8 -45 32 -86
54 -102 52 -164 86 -170 92 -7 7 -47 30 -110 63 -30 16 -62 35 -71 43 -8 8
-20 14 -26 14 -5 0 -28 13 -49 28 -22 16 -45 27 -52 24 -6 -2 -12 1 -12 6 0 6
-12 17 -27 25 -94 48 -192 102 -218 121 -16 12 -59 36 -95 54 -36 18 -74 38
-85 45 -62 39 -96 57 -110 57 -8 0 -15 7 -15 15 0 8 -9 15 -19 15 -11 0 -23 5
-26 10 -9 15 -135 11 -172 -5z"/>
<path d="M4435 4153 c-96 -16 -157 -40 -232 -91 -116 -79 -196 -191 -237 -334
-99 -343 28 -677 309 -813 101 -49 172 -65 289 -65 266 1 471 145 531 375 26
103 36 96 -132 93 l-147 -3 -6 -30 c-32 -151 -194 -233 -353 -179 -154 52
-251 266 -220 482 32 217 142 332 318 332 113 0 213 -65 237 -155 l12 -45 148
0 c81 0 148 2 148 5 0 32 -29 124 -56 176 -59 112 -149 190 -265 229 -84 29
-245 40 -344 23z"/>
<path d="M5737 4158 c-134 -19 -255 -79 -343 -170 -242 -250 -241 -718 2 -963
182 -183 484 -228 732 -110 108 51 209 155 262 268 57 121 74 214 67 362 -3
67 -13 144 -22 175 -62 201 -194 347 -368 407 -78 27 -248 43 -330 31z m235
-260 c120 -55 188 -195 188 -388 0 -273 -135 -433 -351 -418 -156 12 -263 134
-292 337 -21 146 26 325 106 409 86 90 229 115 349 60z"/>
<path d="M8305 4159 c-287 -17 -435 -145 -435 -374 0 -215 111 -308 456 -384
209 -47 271 -81 280 -158 12 -95 -68 -155 -209 -157 -45 -1 -104 5 -131 13
-65 19 -119 73 -135 134 l-11 47 -150 0 -149 0 6 -37 c35 -249 236 -392 553
-393 122 0 204 16 291 57 95 44 157 105 200 196 30 65 31 72 27 170 -3 90 -7
108 -33 155 -62 113 -173 173 -418 227 -201 43 -269 74 -287 131 -10 29 -9 40
7 71 59 113 313 112 383 -1 11 -19 20 -41 20 -50 0 -14 18 -16 145 -16 167 0
159 -6 126 99 -34 110 -134 206 -249 241 -99 29 -164 36 -287 29z"/>
<path d="M16035 4159 c-126 -7 -212 -35 -310 -100 -179 -120 -275 -336 -262
-594 9 -188 65 -322 183 -441 115 -116 261 -174 439 -174 283 0 495 152 587
420 30 88 32 104 33 230 0 103 -5 150 -19 200 -75 261 -251 421 -501 458 -27
4 -95 4 -150 1z m177 -256 c102 -46 171 -158 190 -311 28 -218 -48 -410 -187
-476 -50 -24 -150 -32 -212 -17 -106 26 -200 135 -228 266 -39 185 3 382 101
481 81 81 226 105 336 57z"/>
<path d="M18555 4159 c-121 -6 -175 -18 -248 -56 -74 -37 -131 -95 -163 -166
-25 -54 -28 -74 -28 -152 0 -213 104 -302 446 -381 186 -42 256 -74 282 -127
38 -78 -14 -154 -123 -183 -75 -19 -172 -13 -236 15 -52 23 -92 71 -107 127
l-12 44 -149 0 -148 0 7 -47 c26 -181 133 -296 334 -358 82 -25 286 -31 379
-11 162 34 285 125 332 243 33 84 33 227 0 300 -54 122 -171 189 -433 248
-234 54 -298 92 -285 171 12 74 80 113 195 114 111 0 188 -42 213 -117 l11
-33 144 0 145 0 -6 38 c-11 65 -72 178 -118 217 -106 92 -231 125 -432 114z"/>
<path d="M13016 4145 c-212 -54 -385 -240 -430 -467 -52 -253 12 -497 168
-654 141 -141 347 -201 566 -165 217 36 393 209 417 411 l6 50 -147 0 c-132 0
-146 -2 -146 -17 -1 -29 -39 -106 -68 -136 -51 -54 -98 -72 -192 -72 -100 0
-142 17 -207 81 -75 75 -115 190 -115 329 0 186 64 324 176 383 44 23 63 27
141 27 74 0 98 -4 131 -22 51 -27 85 -67 110 -127 l19 -46 144 0 144 0 -7 40
c-27 167 -157 320 -315 372 -87 28 -306 35 -395 13z"/>
<path d="M6610 3505 l0 -636 138 3 137 3 3 275 c1 151 -2 345 -7 430 -5 85 -7
156 -6 158 2 2 37 -63 79 -144 70 -133 388 -664 424 -706 13 -16 34 -18 159
-18 l143 0 0 635 0 635 -136 0 -136 0 4 -434 3 -433 -71 136 c-39 75 -84 159
-101 186 -26 43 -281 460 -319 523 -14 21 -20 22 -164 22 l-150 0 0 -635z"/>
<path d="M8970 4015 l0 -125 185 0 185 0 0 -510 0 -510 145 0 145 0 0 510 0
510 190 0 190 0 0 125 0 125 -520 0 -520 0 0 -125z"/>
<path d="M10180 3505 l0 -635 140 0 140 0 2 241 3 241 142 -1 c152 -2 191 -11
230 -53 39 -41 54 -96 64 -227 5 -69 14 -143 19 -163 l11 -38 149 0 c83 0 150
2 150 5 0 3 -7 16 -14 28 -9 13 -21 84 -31 182 -8 88 -22 184 -31 213 -17 62
-68 117 -134 149 l-44 20 50 22 c62 28 118 82 152 146 22 42 26 64 26 140 1
79 -3 98 -28 152 -48 105 -149 179 -276 203 -29 5 -203 10 -386 10 l-334 0 0
-635z m624 394 c114 -32 152 -185 67 -270 -49 -50 -91 -59 -263 -59 l-148 0 0
170 0 170 153 0 c83 0 170 -5 191 -11z"/>
<path d="M11370 3682 c0 -381 3 -468 16 -517 53 -205 229 -315 504 -315 278 0
449 111 505 327 12 47 15 141 15 510 l0 453 -145 0 -144 0 -3 -452 c-3 -437
-4 -454 -24 -493 -11 -22 -40 -53 -63 -70 -36 -25 -54 -30 -117 -33 -128 -7
-189 22 -237 111 -22 41 -22 48 -25 490 l-3 447 -140 0 -139 0 0 -458z"/>
<path d="M13800 4015 l0 -125 190 0 190 0 0 -510 0 -511 143 3 142 3 3 507 2
508 188 2 187 3 3 123 3 122 -526 0 -525 0 0 -125z"/>
<path d="M15000 3505 l0 -635 145 0 145 0 0 635 0 635 -145 0 -145 0 0 -635z"/>
<path d="M16860 3505 l0 -635 136 0 136 0 -4 434 -3 433 71 -136 c39 -75 108
-197 153 -271 46 -74 114 -184 151 -245 37 -60 82 -134 100 -162 l33 -53 148
0 149 0 0 635 0 635 -140 0 -140 0 0 -297 c1 -164 5 -359 10 -433 4 -74 7
-136 6 -138 -2 -1 -39 66 -83 150 -45 84 -104 191 -133 238 -29 47 -65 105
-80 130 -15 25 -51 83 -80 130 -29 47 -71 115 -93 153 l-41 67 -148 0 -148 0
0 -635z"/>
<path d="M1811 2435 c-29 -7 -56 -17 -60 -21 -3 -5 -31 -22 -61 -38 -30 -16
-62 -35 -71 -42 -8 -8 -21 -14 -27 -14 -7 0 -12 -4 -12 -10 0 -5 -8 -10 -17
-10 -47 -2 -136 -80 -90 -80 7 0 34 -11 58 -25 24 -14 62 -34 84 -45 22 -10
58 -32 80 -47 22 -16 67 -41 100 -57 33 -16 74 -40 91 -52 17 -13 34 -24 38
-24 28 0 168 -84 155 -94 -36 -25 -143 -86 -151 -86 -6 0 -19 -6 -27 -14 -25
-21 -110 -66 -126 -66 -8 0 -15 -7 -15 -15 0 -8 -7 -15 -15 -15 -8 0 -15 -4
-15 -10 0 -5 -8 -10 -18 -10 -10 0 -23 -5 -29 -11 -14 -14 -40 -29 -113 -65
-30 -15 -73 -39 -95 -54 -22 -14 -56 -34 -75 -43 -19 -9 -48 -25 -65 -37 -46
-31 -148 -28 -197 5 -20 14 -42 25 -48 25 -6 0 -31 14 -55 30 -24 17 -48 30
-54 30 -6 0 -11 5 -11 10 0 6 -9 10 -19 10 -11 0 -21 3 -23 8 -1 4 -19 15 -38
25 -19 10 -61 33 -94 52 -32 19 -64 35 -72 35 -8 0 -14 6 -14 13 0 36 -198 36
-225 1 -10 -13 -80 -52 -195 -111 -30 -15 -56 -31 -58 -35 -2 -4 -10 -8 -17
-8 -8 0 -17 -4 -20 -10 -6 -10 139 -110 160 -110 7 0 36 -16 65 -35 29 -19 56
-35 61 -35 5 0 9 -4 9 -10 0 -5 6 -10 13 -10 16 0 66 -26 131 -68 28 -18 55
-32 61 -32 6 0 18 -9 28 -20 9 -11 26 -20 37 -20 11 0 20 -4 20 -10 0 -5 5
-10 12 -10 6 0 26 -11 43 -25 18 -13 58 -35 89 -49 31 -14 71 -36 89 -50 19
-14 39 -26 45 -26 7 0 12 -4 12 -10 0 -5 8 -10 19 -10 10 0 30 -9 44 -20 14
-11 29 -20 34 -20 4 0 19 -9 33 -20 14 -11 33 -20 43 -20 9 0 17 -7 17 -15 0
-8 6 -12 13 -9 8 3 20 -2 27 -11 7 -8 18 -15 24 -15 6 0 37 -18 70 -40 32 -22
63 -40 68 -40 4 0 38 -18 74 -40 36 -22 70 -40 75 -40 5 0 9 -4 9 -10 0 -5 7
-10 15 -10 9 0 34 -12 58 -27 84 -55 90 -57 177 -57 71 -1 91 3 120 21 19 12
55 32 80 45 25 12 70 38 102 58 31 20 70 43 87 50 17 7 29 16 26 20 -7 11 -95
60 -108 60 -6 0 -37 18 -68 40 -32 22 -62 40 -68 40 -6 0 -48 23 -92 50 -44
28 -87 50 -95 50 -8 0 -14 5 -14 10 0 6 -28 24 -62 41 -78 37 -113 63 -104 77
3 6 23 16 44 22 20 7 42 18 47 24 6 7 26 19 45 28 19 9 50 28 69 42 19 14 41
26 48 26 7 0 13 5 13 10 0 6 7 10 16 10 8 0 47 20 85 45 38 25 76 45 83 45 7
0 24 9 38 19 14 11 51 34 84 52 32 18 61 35 64 38 3 3 32 19 65 36 97 47 203
45 277 -6 14 -11 33 -19 42 -19 9 0 16 -4 16 -9 0 -5 24 -21 53 -35 28 -13 67
-36 86 -50 19 -14 41 -26 48 -26 7 0 45 -21 85 -47 l73 -48 91 0 c82 0 94 2
125 26 19 14 68 44 109 66 83 43 122 65 130 73 3 3 14 10 25 16 20 11 59 73
52 81 -3 2 -12 -3 -20 -12 -31 -31 -102 -11 -207 59 -30 20 -60 36 -67 36 -7
0 -21 8 -31 18 -11 9 -39 28 -63 41 -38 20 -104 56 -174 95 -11 6 -39 24 -62
39 -24 15 -48 27 -54 27 -6 0 -25 10 -42 23 -46 32 -95 57 -112 57 -8 0 -15 5
-15 10 0 6 -7 10 -15 10 -8 0 -15 7 -15 15 0 8 -5 15 -11 15 -16 0 -143 63
-147 72 -2 5 -8 8 -14 8 -5 0 -29 14 -53 30 -24 17 -47 30 -50 30 -4 0 -18 9
-32 20 -14 11 -32 20 -40 20 -8 0 -35 15 -61 32 -62 43 -108 68 -127 68 -8 0
-15 5 -15 10 0 6 -4 10 -9 10 -5 0 -32 16 -61 35 -29 19 -58 35 -65 35 -8 0
-20 6 -28 14 -12 12 -111 47 -126 45 -3 0 -30 -7 -60 -14z"/>
<path d="M4305 2119 c-163 -27 -291 -122 -330 -244 -24 -79 -18 -223 13 -282
55 -107 142 -154 397 -218 201 -51 229 -60 265 -88 77 -58 62 -160 -32 -208
-59 -31 -175 -37 -253 -14 -76 22 -129 72 -146 138 l-11 47 -143 0 c-78 0
-144 -2 -147 -5 -10 -11 11 -117 35 -168 48 -106 144 -186 272 -227 96 -31
328 -39 428 -16 156 37 264 121 312 244 25 63 27 79 23 164 -5 111 -32 173
-102 235 -69 61 -142 91 -351 143 -257 64 -290 83 -290 162 0 33 7 46 37 73
80 74 269 67 340 -12 10 -10 24 -35 33 -56 l15 -37 140 0 c159 0 151 -6 125
89 -17 64 -72 149 -121 186 -54 41 -153 83 -224 94 -75 12 -213 12 -285 0z"/>
<path d="M9640 2123 c-113 -17 -243 -81 -319 -156 -133 -130 -191 -281 -191
-494 0 -137 19 -227 69 -328 71 -144 188 -247 338 -297 59 -20 88 -23 218 -23
131 0 158 3 218 23 167 58 300 219 323 391 l7 52 -142 -3 -142 -3 -24 -59
c-47 -115 -121 -165 -245 -166 -175 0 -288 118 -322 335 -22 143 20 312 99
397 66 70 120 93 218 92 57 0 90 -5 115 -18 57 -30 108 -86 126 -138 l16 -48
144 0 c109 0 144 3 144 13 -1 39 -32 133 -63 189 -91 163 -264 250 -487 247
-41 -1 -86 -3 -100 -6z"/>
<path d="M11900 2119 c-67 -11 -183 -65 -231 -107 -20 -17 -51 -60 -70 -94
-32 -60 -34 -68 -34 -168 0 -98 2 -109 30 -159 61 -110 138 -152 410 -221 107
-27 208 -56 224 -65 67 -34 91 -113 54 -176 -31 -52 -93 -74 -208 -74 -87 0
-107 3 -150 25 -54 27 -89 70 -105 132 l-11 38 -146 0 -146 0 7 -47 c25 -190
145 -315 345 -362 124 -29 305 -29 413 0 125 34 230 114 281 216 28 53 41 162
29 232 -14 79 -35 122 -86 175 -72 73 -160 108 -465 181 -128 30 -177 60 -187
111 -14 77 44 134 153 149 115 15 226 -38 253 -121 l12 -35 141 3 142 3 -3 25
c-2 14 -12 53 -23 88 -40 120 -158 214 -314 247 -77 16 -228 18 -315 4z"/>
<path d="M15642 2119 c-82 -14 -195 -66 -264 -124 -84 -69 -149 -167 -190
-285 -30 -89 -32 -103 -33 -235 0 -107 5 -154 18 -200 69 -226 221 -384 421
-435 107 -27 264 -27 372 0 170 43 303 179 349 357 26 101 36 94 -131 91
l-147 -3 -12 -48 c-47 -184 -312 -242 -455 -98 -88 89 -128 220 -117 380 16
215 119 349 283 366 141 16 245 -52 288 -187 5 -16 21 -18 151 -18 80 0 145 4
145 8 0 27 -35 132 -61 184 -98 195 -342 293 -617 247z"/>
<path d="M5170 1475 l0 -635 480 0 481 0 -3 123 -3 122 -338 3 -338 2 3 143 3
142 288 3 287 2 0 110 0 110 -287 2 -288 3 -3 110 c-2 61 0 120 3 133 l5 22
331 0 330 0 -3 118 -3 117 -472 3 -473 2 0 -635z"/>
<path d="M6300 1476 l0 -636 145 0 145 0 0 240 0 240 128 0 c146 0 189 -9 237
-51 45 -40 53 -69 70 -245 7 -82 16 -157 20 -166 6 -16 24 -18 156 -18 l148 0
-13 33 c-8 17 -19 93 -25 168 -19 233 -51 311 -148 359 -29 14 -52 27 -52 30
0 3 22 16 50 30 108 53 169 156 169 285 0 162 -95 285 -264 341 -43 15 -106
18 -408 21 l-358 4 0 -635z m655 378 c56 -29 80 -74 80 -151 0 -74 -20 -107
-85 -140 -40 -21 -58 -23 -202 -23 l-158 0 0 171 0 171 163 -4 c141 -3 167 -6
202 -24z"/>
<path d="M7400 2108 c0 -2 79 -241 175 -533 96 -291 189 -576 207 -632 l33
-102 155 -1 155 0 32 93 c58 170 383 1162 383 1170 0 4 -66 6 -147 5 l-147 -3
-43 -145 c-24 -80 -62 -203 -83 -275 -50 -163 -81 -277 -116 -429 l-28 -120
-22 105 c-25 120 -50 213 -104 389 -21 69 -59 195 -85 280 -26 85 -51 165 -56
178 -8 21 -12 22 -159 22 -82 0 -150 -1 -150 -2z"/>
<path d="M8680 1475 l0 -635 145 0 145 0 -2 633 -3 632 -142 3 -143 3 0 -636z"/>
<path d="M10460 1475 l0 -635 480 0 480 0 0 125 0 125 -335 0 -335 0 0 145 0
145 285 0 285 0 0 110 0 110 -285 0 -285 0 0 135 0 135 330 0 330 0 0 120 0
120 -475 0 -475 0 0 -635z"/>
<path d="M13187 2103 c-4 -3 -7 -289 -7 -635 l0 -628 440 0 441 0 -3 123 -3
122 -292 3 -293 2 0 510 0 510 -138 0 c-76 0 -142 -3 -145 -7z"/>
<path d="M14210 1475 l0 -635 440 0 440 0 0 109 c0 60 -3 116 -6 125 -5 14
-41 16 -295 16 l-289 0 0 510 0 510 -145 0 -145 0 0 -635z"/>
<path d="M16427 1114 c-4 -4 -7 -67 -7 -141 l0 -133 145 0 146 0 -3 138 -3
137 -136 3 c-74 1 -138 -1 -142 -4z"/>
</g>
</svg>
