<?xml version="1.0" encoding="utf-8"?>
<!-- Generator: Adobe Illustrator 27.5.0, SVG Export Plug-In . SVG Version: 6.00 Build 0)  -->
<svg version="1.1" id="Capa_1" xmlns="http://www.w3.org/2000/svg" xmlns:xlink="http://www.w3.org/1999/xlink" x="0px" y="0px"
	 viewBox="0 0 566.93 566.93" style="enable-background:new 0 0 566.93 566.93;" xml:space="preserve">
<style type="text/css">
	.st0{fill:#FFFFFF;}
</style>
<g>
	<g>
		<path class="st0" d="M373.2,228.1c4.04-0.34,8.1-0.43,12.16-0.26c0-1,0-2,0-3c-2.24-0.09-4.48-0.17-6.72-0.26
			c-0.81-0.03-1.5,0.71-1.5,1.5c0,0.84,0.69,1.47,1.5,1.5c2.24,0.09,4.48,0.17,6.72,0.26c0.81,0.03,1.5-0.71,1.5-1.5
			c0-0.84-0.69-1.47-1.5-1.5c-4.05-0.17-8.11-0.08-12.16,0.26c-0.81,0.07-1.5,0.64-1.5,1.5C371.7,227.36,372.39,228.17,373.2,228.1
			L373.2,228.1z"/>
	</g>
</g>
<g>
	<g>
		<path class="st0" d="M442.82,346.03c-121.22,0-242.44,0-363.66,0c0-74.33,0-148.65,0-222.98c121.22,0,242.44,0,363.66,0
			C442.82,197.37,442.82,271.7,442.82,346.03z M223.45,202.3c-0.33,0.33-0.66,0.66-0.99,1c-0.6-0.77-1.16-1.56-1.8-2.3
			c-1.42-1.66-1.39-2.38,0.5-3.5c1.2-0.71,0.88-1.36,0.25-2.19c-3.09-4.11-6.78-7.55-11.21-10.18c-11.38-6.73-23.7-9.02-36.72-7.37
			c-11.93,1.51-22.51,5.85-30.53,15.32c-3.97,4.69-7.13,9.79-9.24,15.56c-3.59,9.84-4.13,20-3.03,30.3
			c1.11,10.36,4.8,19.77,10.98,28.1c4.93,6.65,11.5,11.35,19.22,14.32c12.45,4.78,25.08,4.98,37.83,1.21
			c12.46-3.68,21.44-11.25,26.41-23.37c0.26-0.63,0.45-1.28,0.76-2.15c-3.78,0-7.23,0-10.69,0c-8.88,0-17.76,0.02-26.64,0
			c-4.09-0.01-6.47-1.9-6.54-5.69c-0.16-8.03-0.16-16.06-0.01-24.09c0.07-3.79,2.4-5.78,6.2-5.85c2.35-0.04,4.86,0.52,7.01-0.14
			c2.95-0.9,5.59-0.65,8.44,0.06c1.53,0.38,3.24,0.06,4.87,0.06c17.24,0,34.47-0.02,51.71,0.01c5.13,0.01,7.07,2.06,7.07,7.16
			c0,27.36-0.02,54.72,0.03,82.08c0.01,3.16-0.21,6.07-3.84,7.92c9.95,0,19.35,0,28.75,0c4.99,0,6.81-1.82,6.81-6.87
			c0.01-20.76,0.01-41.52,0.01-62.29c0-0.81,0-1.62,0-2.45c16.93,0,33.5,0,50.23,0c0.06,0.85,0.15,1.62,0.15,2.38
			c0.02,21.02,0.02,42.04,0.04,63.06c0,4.18,1.95,6.15,6.08,6.16c8.95,0.02,17.89,0,26.84,0.02c5.09,0.01,6.98-1.84,6.99-6.95
			c0.02-16,0.03-31.99,0.03-47.99c0-37.94,0-75.88,0-113.82c0-1.11,0.02-2.23-0.12-3.32c-0.43-3.31-2.25-5.15-5.55-5.18
			c-9.53-0.09-19.06-0.09-28.59-0.01c-3.5,0.03-5.39,1.99-5.7,5.44c-0.07,0.78-0.07,1.56-0.07,2.35
			c-0.01,18.87-0.02,37.74-0.04,56.62c0,0.75-0.07,1.5-0.12,2.52c-5.25,0-10.27,0.03-15.29-0.01c-5.08-0.03-10.17-0.16-15.25-0.15
			c-0.75,0-1.7,0.4-2.2,0.94c-2.29,2.45-2.68,7.8-0.95,11.09c1.72,3.26,5.15,5,9,4.57c5.36-0.6,8.32-6.37,5.51-10.76
			c-1.29-2.03-4.06-3.14-6.12-2.46c-1.97,0.65-3.5,3.39-3.2,5.75c0.17,1.32,1.72,2.78,2.97,2.65c1.55-0.16,1.84-1.13,1.56-2.54
			c-0.07-0.34,0.58-1.16,0.86-1.14c0.5,0.04,1.23,0.43,1.41,0.86c0.63,1.52-0.12,2.92-1.84,3.79c-1.76,0.9-4.33,0.61-5.84-0.9
			c-1.8-1.8-2.3-4.06-1.59-6.49c0.78-2.66,3.65-4.81,6.43-4.95c3.81-0.19,6.75,1.44,8.18,4.5c1.9,4.06,1.6,7.56-1.71,11
			c-5.26,5.46-11.69,4.64-16.41,0.76c-3.57-2.94-4.61-6.97-3.89-11.44c0.27-1.71,0.83-3.38,1.3-5.25c-3.51,0-7.02-0.01-10.53,0
			c-2.56,0.01-2.56,0.01-2.56-2.55c0.01-19,0.02-38,0.01-57c0-1.16-0.02-2.38-0.34-3.48c-0.78-2.68-2.75-3.75-6.56-3.75
			c-18.67-0.01-37.35-0.01-56.02-0.02c-5.55,0-11.09-0.01-16.64-0.01c-3.66,0-7.33,0-11.29,0c0.39,0.32,0.48,0.43,0.59,0.47
			c9.73,3.13,18.91,7.24,27.05,13.62c6.46,5.06,12.53,10.44,17.52,16.96c5.4,7.05,9.63,14.73,12.05,23.33
			c1.01,3.6-0.61,6.07-4.31,6.55c-0.71,0.09-1.43,0.07-2.15,0.07c-8.49,0-16.98-0.08-25.47,0.04c-3.98,0.05-7.67-0.3-10.56-3.48
			c-0.32-0.36-1.33-0.09-2.02-0.11c0.1,0.69-0.03,1.56,0.34,2.03C221.8,201.39,222.7,201.79,223.45,202.3z M201.51,318.4
			c10.83,0,21.11,0,31.68,0c-2.7-1.64-3.53-2.92-3.58-5.72c-0.07-4.17-0.02-8.35-0.04-12.52c0-0.52-0.08-1.04-0.17-2.14
			C222.26,308.1,212.99,314.4,201.51,318.4z"/>
		<path d="M223.45,202.3c-0.74-0.51-1.64-0.91-2.18-1.59c-0.37-0.47-0.24-1.34-0.34-2.03c0.69,0.02,1.7-0.25,2.02,0.11
			c2.89,3.19,6.58,3.54,10.56,3.48c8.49-0.12,16.98-0.03,25.47-0.04c0.72,0,1.44,0.02,2.15-0.07c3.7-0.47,5.32-2.95,4.31-6.55
			c-2.41-8.6-6.65-16.28-12.05-23.33c-4.99-6.52-11.06-11.9-17.52-16.96c-8.15-6.39-17.33-10.49-27.05-13.62
			c-0.11-0.04-0.2-0.15-0.59-0.47c3.96,0,7.62,0,11.29,0c5.55,0,11.09,0.01,16.64,0.01c18.67,0.01,37.35,0.01,56.02,0.02
			c3.81,0,5.77,1.07,6.56,3.75c0.32,1.1,0.34,2.32,0.34,3.48c0.01,19,0,38-0.01,57c0,2.56,0,2.56,2.56,2.55
			c3.51-0.01,7.02,0,10.53,0c-0.47,1.87-1.03,3.54-1.3,5.25c-0.72,4.47,0.32,8.5,3.89,11.44c4.72,3.88,11.15,4.7,16.41-0.76
			c3.31-3.43,3.6-6.94,1.71-11c-1.43-3.06-4.37-4.69-8.18-4.5c-2.78,0.14-5.65,2.28-6.43,4.95c-0.71,2.44-0.21,4.7,1.59,6.49
			c1.51,1.51,4.08,1.8,5.84,0.9c1.72-0.88,2.47-2.27,1.84-3.79c-0.18-0.43-0.91-0.82-1.41-0.86c-0.27-0.02-0.92,0.8-0.86,1.14
			c0.28,1.41-0.01,2.38-1.56,2.54c-1.25,0.13-2.81-1.33-2.97-2.65c-0.29-2.35,1.24-5.1,3.2-5.75c2.06-0.68,4.82,0.43,6.12,2.46
			c2.81,4.4-0.15,10.17-5.51,10.76c-3.85,0.43-7.28-1.31-9-4.57c-1.73-3.29-1.34-8.64,0.95-11.09c0.51-0.54,1.46-0.94,2.2-0.94
			c5.08-0.02,10.17,0.11,15.25,0.15c5.02,0.03,10.04,0.01,15.29,0.01c0.05-1.03,0.12-1.77,0.12-2.52
			c0.02-18.87,0.02-37.74,0.04-56.62c0-0.78,0-1.57,0.07-2.35c0.31-3.46,2.2-5.41,5.7-5.44c9.53-0.08,19.06-0.08,28.59,0.01
			c3.3,0.03,5.12,1.88,5.55,5.18c0.14,1.09,0.12,2.21,0.12,3.32c0.01,37.94,0.01,75.88,0,113.82c0,16-0.01,31.99-0.03,47.99
			c-0.01,5.11-1.9,6.96-6.99,6.95c-8.95-0.01-17.89,0-26.84-0.02c-4.12-0.01-6.07-1.98-6.08-6.16c-0.02-21.02-0.02-42.04-0.04-63.06
			c0-0.77-0.1-1.53-0.15-2.38c-16.73,0-33.3,0-50.23,0c0,0.83,0,1.64,0,2.45c0,20.76,0,41.52-0.01,62.29c0,5.06-1.82,6.87-6.81,6.87
			c-9.4,0-18.8,0-28.75,0c3.63-1.85,3.84-4.77,3.84-7.92c-0.05-27.36-0.03-54.72-0.03-82.08c0-5.11-1.94-7.15-7.07-7.16
			c-17.24-0.03-34.47-0.01-51.71-0.01c-1.63,0-3.34,0.32-4.87-0.06c-2.85-0.71-5.49-0.97-8.44-0.06c-2.15,0.66-4.66,0.1-7.01,0.14
			c-3.8,0.07-6.13,2.07-6.2,5.85c-0.15,8.03-0.14,16.06,0.01,24.09c0.07,3.78,2.45,5.67,6.54,5.69c8.88,0.02,17.76,0.01,26.64,0
			c3.45,0,6.91,0,10.69,0c-0.31,0.87-0.5,1.53-0.76,2.15c-4.97,12.12-13.96,19.69-26.41,23.37c-12.75,3.77-25.38,3.57-37.83-1.21
			c-7.72-2.96-14.29-7.67-19.22-14.32c-6.18-8.33-9.87-17.74-10.98-28.1c-1.1-10.31-0.57-20.46,3.03-30.3
			c2.11-5.76,5.27-10.87,9.24-15.56c8.02-9.47,18.6-13.81,30.53-15.32c13.02-1.64,25.34,0.64,36.72,7.37
			c4.44,2.62,8.12,6.07,11.21,10.18c0.63,0.83,0.95,1.48-0.25,2.19c-1.88,1.12-1.92,1.84-0.5,3.5c0.63,0.74,1.2,1.53,1.8,2.3
			C222.78,202.96,223.11,202.63,223.45,202.3z M335.48,223.58c0.27,0.04,0.54,0.08,0.8,0.12c2.99-4.01,3.64-8.37,1.82-13.11
			c-0.87-2.28-1.71-2.62-4.08-1.69c0.38,0.49,0.81,0.96,1.14,1.49c2.12,3.41,2.08,6.96,0.75,10.63
			C335.62,221.82,335.61,222.73,335.48,223.58z M215.53,209.25c0.06-0.12,0.12-0.24,0.19-0.37c-0.86-1.11-1.72-2.22-2.74-3.54
			c-0.03,0.01-0.59,0.17-1.52,0.43C212.99,207.09,214.26,208.17,215.53,209.25z M206.96,217.94c-1.72-2.99-3.03-3.53-4.14-2.09
			C204.16,216.52,205.56,217.23,206.96,217.94z M202.34,217.45c-0.18,0.14-0.37,0.28-0.55,0.43c0.95,1.03,1.9,2.07,2.85,3.1
			c0.17-0.16,0.34-0.31,0.51-0.47C204.21,219.49,203.27,218.47,202.34,217.45z M220.05,204.64c0.03-0.04,0.06-0.08,0.09-0.11
			c-0.98-1.04-1.97-2.08-2.95-3.12c-0.03,0.03-0.06,0.06-0.1,0.09C218.07,202.54,219.06,203.59,220.05,204.64z"/>
		<path d="M201.51,318.4c11.48-4.01,20.75-10.31,27.89-20.38c0.09,1.1,0.16,1.62,0.17,2.14c0.02,4.17-0.03,8.35,0.04,12.52
			c0.05,2.81,0.88,4.08,3.58,5.72C222.62,318.4,212.34,318.4,201.51,318.4z"/>
		<path class="st0" d="M335.48,223.58c0.14-0.85,0.14-1.76,0.43-2.56c1.34-3.67,1.37-7.22-0.75-10.63
			c-0.33-0.53-0.76-0.99-1.14-1.49c2.37-0.93,3.21-0.59,4.08,1.69c1.81,4.73,1.16,9.1-1.82,13.11
			C336.01,223.66,335.74,223.62,335.48,223.58z"/>
		<path class="st0" d="M215.53,209.25c-1.27-1.08-2.53-2.16-4.08-3.48c0.93-0.26,1.49-0.42,1.52-0.43c1.02,1.32,1.88,2.43,2.74,3.54
			C215.65,209,215.59,209.12,215.53,209.25z"/>
		<path class="st0" d="M206.96,217.94c-1.4-0.71-2.8-1.42-4.14-2.09C203.94,214.41,205.24,214.95,206.96,217.94z"/>
		<path class="st0" d="M202.34,217.45c0.93,1.02,1.87,2.04,2.8,3.06c-0.17,0.16-0.34,0.31-0.51,0.47c-0.95-1.03-1.9-2.07-2.85-3.1
			C201.97,217.73,202.16,217.59,202.34,217.45z"/>
		<path class="st0" d="M220.05,204.64c-0.99-1.05-1.97-2.1-2.96-3.15c0.03-0.03,0.06-0.06,0.1-0.09c0.98,1.04,1.97,2.08,2.95,3.12
			C220.1,204.56,220.08,204.6,220.05,204.64z"/>
	</g>
</g>
</svg>
