<svg version="1.0" xmlns="http://www.w3.org/2000/svg"
 width="470.000000pt" height="532.000000pt" viewBox="0 0 470.000000 532.000000"
 preserveAspectRatio="xMidYMid meet">

<g transform="translate(0.000000,532.000000) scale(0.100000,-0.100000)"
fill="#ffffff" stroke="none">
<path d="M2210 5238 c-58 -30 -463 -263 -885 -508 -82 -48 -170 -98 -195 -112
-25 -14 -160 -92 -300 -173 -140 -82 -275 -160 -300 -174 -237 -131 -389 -226
-423 -264 -72 -82 -68 17 -65 -1373 l3 -1251 220 126 c529 305 781 451 945
546 96 56 198 115 225 130 28 15 160 91 295 170 491 285 510 296 558 305 93
17 150 -7 547 -238 138 -80 324 -188 415 -240 91 -52 235 -136 320 -185 85
-49 175 -101 200 -115 25 -14 124 -71 220 -127 587 -341 585 -340 630 -295 20
20 20 31 18 781 l-3 761 -140 80 c-77 44 -160 92 -185 106 -25 14 -124 71
-220 127 -96 56 -416 240 -710 410 -294 169 -579 334 -633 366 -54 33 -100 59
-102 59 -2 0 -50 27 -107 60 -56 33 -110 60 -118 60 -9 0 -21 5 -27 11 -20 20
-119 0 -196 -40 -40 -21 -187 -104 -327 -186 -288 -167 -540 -313 -807 -466
l-182 -104 -1 -322 c0 -178 2 -323 5 -323 3 0 65 34 138 77 229 132 956 553
1091 630 136 79 201 99 267 84 41 -10 173 -75 284 -141 114 -67 488 -283 780
-450 138 -79 268 -155 290 -169 22 -14 65 -39 96 -56 31 -16 99 -55 153 -85
l96 -55 0 -113 c0 -108 -1 -114 -26 -138 -41 -42 66 -97 -1014 528 -118 68
-305 176 -415 239 l-199 114 -86 0 c-99 0 -62 17 -470 -220 -140 -82 -284
-165 -320 -185 -36 -20 -177 -102 -315 -182 -137 -80 -337 -195 -442 -256
l-193 -111 0 607 0 607 24 51 c29 62 77 111 142 144 27 14 92 50 144 81 52 31
169 99 260 151 91 53 325 188 520 301 195 112 371 214 390 225 19 11 64 36
100 56 77 45 142 59 209 46 44 -8 338 -173 1216 -682 66 -39 140 -81 165 -95
25 -14 113 -65 196 -114 83 -48 166 -96 185 -107 19 -11 95 -54 169 -97 74
-43 153 -89 175 -102 50 -28 98 -30 125 -3 19 19 20 33 20 294 l0 274 -177
102 c-98 57 -234 135 -303 175 -538 311 -985 569 -1438 830 l-294 168 -76 5
c-72 4 -81 2 -142 -30z"/>
<path d="M2300 2550 c-61 -9 -74 -15 -256 -121 -87 -50 -180 -103 -207 -117
-57 -31 -59 -28 83 -109 58 -33 211 -121 340 -195 129 -74 254 -145 278 -157
51 -26 87 -60 76 -71 -8 -8 -135 -82 -326 -192 -37 -21 -72 -38 -78 -38 -5 0
-10 -4 -10 -9 0 -5 -10 -13 -22 -17 -13 -4 -25 -10 -28 -14 -6 -7 -157 -100
-164 -100 -3 0 -85 -47 -184 -105 -99 -57 -201 -110 -227 -116 -99 -25 -191 2
-352 104 -21 13 -63 38 -93 54 -30 17 -120 68 -200 114 -80 47 -159 90 -177
98 -42 17 -171 16 -214 -2 -51 -22 -433 -245 -436 -254 -2 -5 83 -59 189 -120
106 -61 276 -159 378 -218 102 -59 322 -186 490 -282 168 -96 310 -179 315
-183 6 -4 46 -28 90 -52 44 -24 141 -80 215 -123 487 -283 471 -275 564 -275
79 0 114 11 195 58 36 22 132 77 213 123 81 46 147 87 148 90 0 3 -19 16 -42
29 -24 13 -196 112 -383 220 -187 109 -355 205 -372 214 -18 9 -33 20 -33 25
0 4 24 21 53 36 52 28 215 122 647 373 296 172 331 189 387 198 91 13 136 -5
426 -173 361 -209 358 -207 444 -211 80 -5 127 7 193 48 25 15 70 41 100 58
216 119 275 158 297 197 33 59 29 70 -14 40 -21 -14 -46 -25 -56 -25 -21 0
-117 47 -190 94 -28 18 -77 47 -107 63 -30 16 -98 54 -150 85 -150 87 -1061
614 -1100 635 -19 11 -138 80 -263 152 -126 73 -248 141 -270 151 -51 21 -107
28 -167 20z"/>
</g>
</svg>
